{"title":"Student of the Year Hindi (2012) 720p DVDRip x264-INDYTorrenTs","uid":7969001,"size":848949223,"categoryP":"video","categoryS":"hd___movies","magnet":"?xt=urn:btih:d31b78d5cd11232be252fbb9e26062610973dca3&amp;dn=Student+of+the+Year+Hindi+%282012%29+720p+DVDRip+x264-INDYTorrenTs&amp;tr=udp%3A%2F%2Ftracker.openbittorrent.com%3A80&amp;tr=udp%3A%2F%2Fopen.demonii.com%3A1337&amp;tr=udp%3A%2F%2Ftracker.coppersurfer.tk%3A6969&amp;tr=udp%3A%2F%2Fexodus.desync.com%3A6969","seeders":3,"leechers":1,"uploader":"TorrentXXLS","files":-1,"time":1356778477,"description":"Screenshots:\n &lt;a href=&quot;\nhttp://img38.imageshack.us/img38/3127/studentoftheyearposter.jpg&quot; rel=&quot;nofollow&quot; target=&quot;_NEW&quot;&gt;\nhttp://img38.imageshack.us/img38/3127/studentoftheyearposter.jpg&lt;/a&gt; &lt;a href=&quot;\nhttp://imageshack.us/a/img585/5973/vlcsnap2012122910h43m50.png&quot; rel=&quot;nofollow&quot; target=&quot;_NEW&quot;&gt;\nhttp://imageshack.us/a/img585/5973/vlcsnap2012122910h43m50.png&lt;/a&gt; &lt;a href=&quot;\nhttp://imageshack.us/a/img846/7743/vlcsnap2012122910h43m44.png&quot; rel=&quot;nofollow&quot; target=&quot;_NEW&quot;&gt;\nhttp://imageshack.us/a/img846/7743/vlcsnap2012122910h43m44.png&lt;/a&gt; &lt;a href=&quot;\nhttp://imageshack.us/a/img560/4161/vlcsnap2012122910h43m39.png&quot; rel=&quot;nofollow&quot; target=&quot;_NEW&quot;&gt;\nhttp://imageshack.us/a/img560/4161/vlcsnap2012122910h43m39.png&lt;/a&gt; &lt;a href=&quot;\nhttp://imageshack.us/a/img443/5262/vlcsnap2012122910h43m33.png&quot; rel=&quot;nofollow&quot; target=&quot;_NEW&quot;&gt;\nhttp://imageshack.us/a/img443/5262/vlcsnap2012122910h43m33.png&lt;/a&gt; &lt;a href=&quot;\nhttp://imageshack.us/a/img836/3494/vlcsnap2012122910h43m06.png&quot; rel=&quot;nofollow&quot; target=&quot;_NEW&quot;&gt;\nhttp://imageshack.us/a/img836/3494/vlcsnap2012122910h43m06.png&lt;/a&gt;\n\nNFO:\n\nRelease Date: 19 Oct 2012\nGenre: Drama\nLanguage: Hindi\nDirector: Karan Johar\nProducer: Hiroo Johar,\t Gauri Khan\nCast: Sidharth Malhotra as Abhimanyu Singh a.k.a Abhi \nVarun Dhawan as Rohan Nanda a.k.a Ro\n\nStudent of the Year movie is the story of Abhimanyu Singh (Sidharth Malhotra) and Rohan Nanda (Varun Dhawan) who traverse the path of competition, envy, triumph, failure, manipulation and heartbreak in their mini-universe of St. Teresa's High School, Dehradun.\n\nFormat : MPEG-4\nFormat profile : Base Media\nCodec ID : isom\nFile size : 804 MiB\nDuration : 2h 26mn\nOverall bit rate mode : Variable\nOverall bit rate : 768 Kbps\n\nVideo\nID : 1\nFormat : MPEG-4 Visual\nFormat profile : Simple@L1\nFormat settings, BVOP : No\nFormat settings, QPel : No\nFormat settings, GMC : No warppoints\nFormat settings, Matrix : Default (H.263)\nCodec ID : 20\nDuration : 2h 26mn\nBit rate : 668 Kbps\nWidth : 1 280 pixels\nHeight : 544 pixels\nDisplay aspect ratio : 2.35:1\nOriginal display aspect ratio : 2.35:1\nFrame rate mode : Constant\nFrame rate : 29.970 fps\nColor space : YUV\nChroma subsampling : 4:2:0\nBit depth : 8 bits\nScan type : Progressive\nCompression mode : Lossy\nBits/(Pixel*Frame) : 0.032\nStream size : 699 MiB (87%)\n\n\nAudio\nID : 2\nFormat : AAC\nFormat/Info : Advanced Audio Codec\nFormat profile : LC\nCodec ID : 40\nDuration : 2h 26mn\nBit rate mode : Variable\nBit rate : 96.0 Kbps\nChannel(s) : 2 channels\nChannel positions : Front: L R\nSampling rate : 32.0 KHz\nCompression mode : Lossy\nStream size : 101 MiB (13%)","torrent":{"xt":"urn:btih:d31b78d5cd11232be252fbb9e26062610973dca3","amp;dn":"Student+of+the+Year+Hindi+%282012%29+720p+DVDRip+x264-INDYTorrenTs","amp;tr":["udp%3A%2F%2Ftracker.openbittorrent.com%3A80","udp%3A%2F%2Fopen.demonii.com%3A1337","udp%3A%2F%2Ftracker.coppersurfer.tk%3A6969","udp%3A%2F%2Fexodus.desync.com%3A6969"],"infoHash":"d31b78d5cd11232be252fbb9e26062610973dca3","infoHashBuffer":{"type":"Buffer","data":[211,27,120,213,205,17,35,43,226,82,251,185,226,96,98,97,9,115,220,163]},"announce":[],"urlList":[]}}